<?xml version="1.0" encoding="utf-8" ?>	<!-- Generator: Assembly 2.2 - http://assemblyapp.co -->	<svg version="1.1" xmlns="http://www.w3.org/2000/svg" xmlns:xlink="http://www.w3.org/1999/xlink" width="2048.00" height="2048.00" viewBox="0 0 2048.0 2048.0">		<rect x="0" y="0" width="2048.00" height="2048.00" fill="#ffffff" />		<g id="document" transform="matrix(1,0,0,1,1024.0,1024.0)">			<defs>				<filter id="NSdvgTMY" x="-32.15%" y="-44.81%" width="182.80%" height="195.45%" filterUnits="objectBoundingBox">					<feOffset dx="-181.00" dy="-516.20" in="SourceAlpha" result="shadowOffsetOuter1" />					<feGaussianBlur stdDeviation="335.43" in="shadowOffsetOuter1" result="shadowBlurOuter1" />					<feFlood flood-color="#000000" flood-opacity="0.68" />					<feComposite in2="shadowBlurOuter1" operator="in" />					<feMerge>						<feMergeNode />						<feMergeNode in="SourceGraphic" />					</feMerge>				</filter>			</defs>			<path d="M-1324.68,2.27374e-13 L1324.68,2.27374e-13 L1324.68,-2649.37 L-1324.68,-2649.37 L-1324.68,2.27374e-13 Z " fill="#ffb400" fill-opacity="1.00" filter="url(#NSdvgTMY)" />			<path d="M-529.802,52.4765 L496.907,52.4765 L309.107,-45.551 L225.525,-158.025 L20.1837,-237.479 L4.70565,-268.435 L-68.557,-321.06 L-192.381,-193.108 L-245.007,-170.407 L-352.321,-86.8257 L-385.341,-98.1763 C-385.341,-98.1763 -520.515,43.1897 -529.802,52.4765 Z " fill="#e6efff" fill-opacity="1.00" />			<path d="M-1223.53,126.783 L285.138,126.783 L9.18106,-17.2607 L-113.635,-182.531 L-415.368,-299.282 L-438.112,-344.77 L-545.765,-422.098 L-727.715,-234.084 L-805.043,-200.726 L-962.733,-77.9105 L-1011.25,-94.5892 C-1011.25,-94.5892 -1209.88,113.137 -1223.53,126.783 Z " fill="#bbdeff" fill-opacity="1.00" />			<path d="M-1072.37,2225.37 C-1072.37,2210.53 -1084.41,2198.5 -1099.25,2198.5 C-1114.09,2198.5 -1126.12,2210.53 -1126.12,2225.37 C-1126.12,2240.22 -1114.09,2252.25 -1099.25,2252.25 C-1084.41,2252.25 -1072.37,2240.22 -1072.37,2225.37 Z M-627.512,2198.5 C-642.355,2198.5 -654.387,2210.53 -654.387,2225.37 C-654.387,2240.22 -642.355,2252.25 -627.512,2252.25 C-612.668,2252.25 -600.636,2240.22 -600.636,2225.37 C-600.636,2210.53 -612.668,2198.5 -627.512,2198.5 Z M-391.642,2198.5 C-406.486,2198.5 -418.518,2210.53 -418.518,2225.37 C-418.518,2240.22 -406.486,2252.25 -391.642,2252.25 C-376.799,2252.25 -364.767,2240.22 -364.767,2225.37 C-364.767,2210.53 -376.799,2198.5 -391.642,2198.5 Z M-128.898,2225.37 C-128.898,2210.53 -140.93,2198.5 -155.774,2198.5 C-170.617,2198.5 -182.65,2210.53 -182.65,2225.37 C-182.65,2240.22 -170.617,2252.25 -155.774,2252.25 C-140.93,2252.25 -128.898,2240.22 -128.898,2225.37 Z M106.314,2225.37 C106.314,2210.53 94.2807,2198.5 79.4374,2198.5 C64.594,2198.5 52.5611,2210.53 52.5611,2225.37 C52.5611,2240.22 64.594,2252.25 79.4374,2252.25 C94.2807,2252.25 106.314,2240.22 106.314,2225.37 Z M315.963,2198.5 C301.12,2198.5 289.088,2210.53 289.088,2225.37 C289.088,2240.22 301.12,2252.25 315.963,2252.25 C330.807,2252.25 342.839,2240.22 342.839,2225.37 C342.839,2210.53 330.807,2198.5 315.963,2198.5 Z M551.832,2198.5 C536.988,2198.5 524.956,2210.53 524.956,2225.37 C524.956,2240.22 536.988,2252.25 551.832,2252.25 C566.675,2252.25 578.707,2240.22 578.707,2225.37 C578.707,2210.53 566.675,2198.5 551.832,2198.5 Z M814.577,2225.37 C814.577,2210.53 802.544,2198.5 787.701,2198.5 C772.857,2198.5 760.825,2210.53 760.825,2225.37 C760.825,2240.22 772.857,2252.25 787.701,2252.25 C802.544,2252.25 814.577,2240.22 814.577,2225.37 Z M1050.45,2225.37 C1050.45,2210.53 1038.41,2198.5 1023.57,2198.5 C1008.73,2198.5 996.693,2210.53 996.693,2225.37 C996.693,2240.22 1008.73,2252.25 1023.57,2252.25 C1038.41,2252.25 1050.45,2240.22 1050.45,2225.37 Z M-836.504,2225.37 C-836.504,2210.53 -848.537,2198.5 -863.38,2198.5 C-878.223,2198.5 -890.256,2210.53 -890.256,2225.37 C-890.256,2240.22 -878.223,2252.25 -863.38,2252.25 C-848.537,2252.25 -836.504,2240.22 -836.504,2225.37 Z M-1099.25,1726.76 C-1114.09,1726.76 -1126.13,1738.79 -1126.13,1753.64 C-1126.13,1768.48 -1114.09,1780.51 -1099.25,1780.51 C-1084.41,1780.51 -1072.37,1768.48 -1072.37,1753.64 C-1072.37,1738.79 -1084.41,1726.76 -1099.25,1726.76 Z M-627.512,1726.76 C-642.355,1726.76 -654.387,1738.79 -654.387,1753.64 C-654.387,1768.48 -642.355,1780.51 -627.512,1780.51 C-612.668,1780.51 -600.636,1768.48 -600.636,1753.64 C-600.636,1738.79 -612.668,1726.76 -627.512,1726.76 Z M-391.642,1726.76 C-406.486,1726.76 -418.518,1738.79 -418.518,1753.64 C-418.518,1768.48 -406.486,1780.51 -391.642,1780.51 C-376.799,1780.51 -364.767,1768.48 -364.767,1753.64 C-364.767,1738.79 -376.799,1726.76 -391.642,1726.76 Z M-155.774,1726.76 C-170.617,1726.76 -182.65,1738.79 -182.65,1753.64 C-182.65,1768.48 -170.617,1780.51 -155.774,1780.51 C-140.931,1780.51 -128.898,1768.48 -128.898,1753.64 C-128.898,1738.79 -140.931,1726.76 -155.774,1726.76 Z M79.4374,1726.76 C64.5945,1726.76 52.5611,1738.79 52.5611,1753.64 C52.5611,1768.48 64.5945,1780.51 79.4374,1780.51 C94.2803,1780.51 106.314,1768.48 106.314,1753.64 C106.314,1738.79 94.2803,1726.76 79.4374,1726.76 Z M315.963,1726.76 C301.12,1726.76 289.088,1738.79 289.088,1753.64 C289.088,1768.48 301.12,1780.51 315.963,1780.51 C330.807,1780.51 342.839,1768.48 342.839,1753.64 C342.839,1738.79 330.807,1726.76 315.963,1726.76 Z M551.832,1726.76 C536.988,1726.76 524.956,1738.79 524.956,1753.64 C524.956,1768.48 536.988,1780.51 551.832,1780.51 C566.675,1780.51 578.707,1768.48 578.707,1753.64 C578.707,1738.79 566.675,1726.76 551.832,1726.76 Z M787.701,1726.76 C772.858,1726.76 760.825,1738.79 760.825,1753.64 C760.825,1768.48 772.858,1780.51 787.701,1780.51 C802.544,1780.51 814.577,1768.48 814.577,1753.64 C814.577,1738.79 802.544,1726.76 787.701,1726.76 Z M1023.57,1726.76 C1008.73,1726.76 996.693,1738.79 996.693,1753.64 C996.693,1768.48 1008.73,1780.51 1023.57,1780.51 C1038.41,1780.51 1050.45,1768.48 1050.45,1753.64 C1050.45,1738.79 1038.41,1726.76 1023.57,1726.76 Z M-863.38,1726.76 C-878.223,1726.76 -890.256,1738.79 -890.256,1753.64 C-890.256,1768.48 -878.223,1780.51 -863.38,1780.51 C-848.537,1780.51 -836.504,1768.48 -836.504,1753.64 C-836.504,1738.79 -848.537,1726.76 -863.38,1726.76 Z M-1072.37,1281.9 C-1072.37,1267.06 -1084.41,1255.02 -1099.25,1255.02 C-1114.09,1255.02 -1126.12,1267.06 -1126.12,1281.9 C-1126.12,1296.74 -1114.09,1308.78 -1099.25,1308.78 C-1084.41,1308.78 -1072.37,1296.74 -1072.37,1281.9 Z M-627.512,1255.02 C-642.355,1255.02 -654.387,1267.06 -654.387,1281.9 C-654.387,1296.74 -642.355,1308.78 -627.512,1308.78 C-612.668,1308.78 -600.636,1296.74 -600.636,1281.9 C-600.636,1267.06 -612.668,1255.02 -627.512,1255.02 Z M-391.642,1255.02 C-406.486,1255.02 -418.518,1267.06 -418.518,1281.9 C-418.518,1296.74 -406.486,1308.78 -391.642,1308.78 C-376.799,1308.78 -364.767,1296.74 -364.767,1281.9 C-364.767,1267.06 -376.799,1255.02 -391.642,1255.02 Z M-128.898,1281.9 C-128.898,1267.06 -140.93,1255.02 -155.774,1255.02 C-170.617,1255.02 -182.65,1267.06 -182.65,1281.9 C-182.65,1296.74 -170.617,1308.78 -155.774,1308.78 C-140.93,1308.78 -128.898,1296.74 -128.898,1281.9 Z M106.314,1281.9 C106.314,1267.06 94.2807,1255.02 79.4374,1255.02 C64.594,1255.02 52.5611,1267.06 52.5611,1281.9 C52.5611,1296.74 64.594,1308.78 79.4374,1308.78 C94.2807,1308.78 106.314,1296.74 106.314,1281.9 Z M315.963,1255.02 C301.12,1255.02 289.088,1267.06 289.088,1281.9 C289.088,1296.74 301.12,1308.78 315.963,1308.78 C330.807,1308.78 342.839,1296.74 342.839,1281.9 C342.839,1267.06 330.807,1255.02 315.963,1255.02 Z M551.832,1255.02 C536.988,1255.02 524.956,1267.06 524.956,1281.9 C524.956,1296.74 536.988,1308.78 551.832,1308.78 C566.675,1308.78 578.707,1296.74 578.707,1281.9 C578.707,1267.06 566.675,1255.02 551.832,1255.02 Z M814.577,1281.9 C814.577,1267.06 802.544,1255.02 787.701,1255.02 C772.857,1255.02 760.825,1267.06 760.825,1281.9 C760.825,1296.74 772.857,1308.78 787.701,1308.78 C802.544,1308.78 814.577,1296.74 814.577,1281.9 Z M1050.45,1281.9 C1050.45,1267.06 1038.41,1255.02 1023.57,1255.02 C1008.73,1255.02 996.693,1267.06 996.693,1281.9 C996.693,1296.74 1008.73,1308.78 1023.57,1308.78 C1038.41,1308.78 1050.45,1296.74 1050.45,1281.9 Z M-836.504,1281.9 C-836.504,1267.06 -848.537,1255.02 -863.38,1255.02 C-878.223,1255.02 -890.256,1267.06 -890.256,1281.9 C-890.256,1296.74 -878.223,1308.78 -863.38,1308.78 C-848.537,1308.78 -836.504,1296.74 -836.504,1281.9 Z M1141.5,2434.37 C1126.66,2434.37 1114.63,2446.4 1114.63,2461.24 C1114.63,2476.09 1126.66,2488.12 1141.5,2488.12 C1156.35,2488.12 1168.38,2476.09 1168.38,2461.24 C1168.38,2446.4 1156.35,2434.37 1141.5,2434.37 Z M905.635,2434.37 C890.792,2434.37 878.759,2446.4 878.759,2461.24 C878.759,2476.09 890.792,2488.12 905.635,2488.12 C920.478,2488.12 932.511,2476.09 932.511,2461.24 C932.511,2446.4 920.478,2434.37 905.635,2434.37 Z M669.767,2434.37 C654.924,2434.37 642.89,2446.4 642.89,2461.24 C642.89,2476.09 654.924,2488.12 669.767,2488.12 C684.61,2488.12 696.643,2476.09 696.643,2461.24 C696.643,2446.4 684.61,2434.37 669.767,2434.37 Z M433.898,2434.37 C419.054,2434.37 407.022,2446.4 407.022,2461.24 C407.022,2476.09 419.054,2488.12 433.898,2488.12 C448.741,2488.12 460.773,2476.09 460.773,2461.24 C460.773,2446.4 448.741,2434.37 433.898,2434.37 Z M198.029,2434.37 C183.186,2434.37 171.152,2446.4 171.152,2461.24 C171.152,2476.09 183.186,2488.12 198.029,2488.12 C212.871,2488.12 224.905,2476.09 224.905,2461.24 C224.905,2446.4 212.871,2434.37 198.029,2434.37 Z M-37.8397,2434.37 C-52.6826,2434.37 -64.716,2446.4 -64.716,2461.24 C-64.716,2476.09 -52.6826,2488.12 -37.8397,2488.12 C-22.9968,2488.12 -10.9634,2476.09 -10.9634,2461.24 C-10.9634,2446.4 -22.9968,2434.37 -37.8397,2434.37 Z M-273.708,2434.37 C-288.551,2434.37 -300.584,2446.4 -300.584,2461.24 C-300.584,2476.09 -288.551,2488.12 -273.708,2488.12 C-258.865,2488.12 -246.832,2476.09 -246.832,2461.24 C-246.832,2446.4 -258.865,2434.37 -273.708,2434.37 Z M-509.576,2434.37 C-524.421,2434.37 -536.453,2446.4 -536.453,2461.24 C-536.453,2476.09 -524.421,2488.12 -509.576,2488.12 C-494.733,2488.12 -482.701,2476.09 -482.701,2461.24 C-482.701,2446.4 -494.733,2434.37 -509.576,2434.37 Z M-745.446,2434.37 C-760.289,2434.37 -772.321,2446.4 -772.321,2461.24 C-772.321,2476.09 -760.289,2488.12 -745.446,2488.12 C-730.603,2488.12 -718.57,2476.09 -718.57,2461.24 C-718.57,2446.4 -730.603,2434.37 -745.446,2434.37 Z M-981.314,2434.37 C-996.157,2434.37 -1008.19,2446.4 -1008.19,2461.24 C-1008.19,2476.09 -996.157,2488.12 -981.314,2488.12 C-966.471,2488.12 -954.438,2476.09 -954.438,2461.24 C-954.438,2446.4 -966.471,2434.37 -981.314,2434.37 Z M-1217.18,2434.37 C-1232.03,2434.37 -1244.06,2446.4 -1244.06,2461.24 C-1244.06,2476.09 -1232.03,2488.12 -1217.18,2488.12 C-1202.34,2488.12 -1190.31,2476.09 -1190.31,2461.24 C-1190.31,2446.4 -1202.34,2434.37 -1217.18,2434.37 Z M1168.38,1989.51 C1168.38,1974.66 1156.35,1962.63 1141.5,1962.63 C1126.66,1962.63 1114.63,1974.66 1114.63,1989.51 C1114.63,2004.35 1126.66,2016.38 1141.5,2016.38 C1156.35,2016.38 1168.38,2004.35 1168.38,1989.51 Z M932.511,1989.51 C932.511,1974.66 920.478,1962.63 905.635,1962.63 C890.792,1962.63 878.759,1974.66 878.759,1989.51 C878.759,2004.35 890.792,2016.38 905.635,2016.38 C920.478,2016.38 932.511,2004.35 932.511,1989.51 Z M696.643,1989.51 C696.643,1974.66 684.61,1962.63 669.767,1962.63 C654.923,1962.63 642.89,1974.66 642.89,1989.51 C642.89,2004.35 654.923,2016.38 669.767,2016.38 C684.61,2016.38 696.643,2004.35 696.643,1989.51 Z M433.898,1962.63 C419.054,1962.63 407.022,1974.66 407.022,1989.51 C407.022,2004.35 419.054,2016.38 433.898,2016.38 C448.741,2016.38 460.773,2004.35 460.773,1989.51 C460.773,1974.66 448.741,1962.63 433.898,1962.63 Z M224.905,1989.51 C224.905,1974.66 212.872,1962.63 198.029,1962.63 C183.185,1962.63 171.152,1974.66 171.152,1989.51 C171.152,2004.35 183.185,2016.38 198.029,2016.38 C212.872,2016.38 224.905,2004.35 224.905,1989.51 Z M-10.9634,1989.51 C-10.9634,1974.66 -22.9963,1962.63 -37.8397,1962.63 C-52.683,1962.63 -64.716,1974.66 -64.716,1989.51 C-64.716,2004.35 -52.683,2016.38 -37.8397,2016.38 C-22.9963,2016.38 -10.9634,2004.35 -10.9634,1989.51 Z M-246.832,1989.51 C-246.832,1974.66 -258.865,1962.63 -273.708,1962.63 C-288.551,1962.63 -300.584,1974.66 -300.584,1989.51 C-300.584,2004.35 -288.551,2016.38 -273.708,2016.38 C-258.865,2016.38 -246.832,2004.35 -246.832,1989.51 Z M-509.576,1962.63 C-524.421,1962.63 -536.453,1974.66 -536.453,1989.51 C-536.453,2004.35 -524.421,2016.38 -509.576,2016.38 C-494.733,2016.38 -482.701,2004.35 -482.701,1989.51 C-482.701,1974.66 -494.733,1962.63 -509.576,1962.63 Z M-745.446,1962.63 C-760.289,1962.63 -772.321,1974.66 -772.321,1989.51 C-772.321,2004.35 -760.289,2016.38 -745.446,2016.38 C-730.603,2016.38 -718.57,2004.35 -718.57,1989.51 C-718.57,1974.66 -730.603,1962.63 -745.446,1962.63 Z M-954.438,1989.51 C-954.438,1974.66 -966.471,1962.63 -981.314,1962.63 C-996.158,1962.63 -1008.19,1974.66 -1008.19,1989.51 C-1008.19,2004.35 -996.158,2016.38 -981.314,2016.38 C-966.471,2016.38 -954.438,2004.35 -954.438,1989.51 Z M-1190.31,1989.51 C-1190.31,1974.66 -1202.34,1962.63 -1217.18,1962.63 C-1232.03,1962.63 -1244.06,1974.66 -1244.06,1989.51 C-1244.06,2004.35 -1232.03,2016.38 -1217.18,2016.38 C-1202.34,2016.38 -1190.31,2004.35 -1190.31,1989.51 Z M1141.5,1490.89 C1126.66,1490.89 1114.63,1502.92 1114.63,1517.77 C1114.63,1532.61 1126.66,1544.64 1141.5,1544.64 C1156.35,1544.64 1168.38,1532.61 1168.38,1517.77 C1168.38,1502.92 1156.35,1490.89 1141.5,1490.89 Z M905.635,1490.89 C890.792,1490.89 878.759,1502.92 878.759,1517.77 C878.759,1532.61 890.792,1544.64 905.635,1544.64 C920.478,1544.64 932.511,1532.61 932.511,1517.77 C932.511,1502.92 920.478,1490.89 905.635,1490.89 Z M669.767,1490.89 C654.924,1490.89 642.89,1502.92 642.89,1517.77 C642.89,1532.61 654.924,1544.64 669.767,1544.64 C684.61,1544.64 696.643,1532.61 696.643,1517.77 C696.643,1502.92 684.61,1490.89 669.767,1490.89 Z M433.898,1490.89 C419.054,1490.89 407.022,1502.92 407.022,1517.77 C407.022,1532.61 419.054,1544.64 433.898,1544.64 C448.741,1544.64 460.773,1532.61 460.773,1517.77 C460.773,1502.92 448.741,1490.89 433.898,1490.89 Z M198.029,1490.89 C183.186,1490.89 171.152,1502.92 171.152,1517.77 C171.152,1532.61 183.186,1544.64 198.029,1544.64 C212.871,1544.64 224.905,1532.61 224.905,1517.77 C224.905,1502.92 212.871,1490.89 198.029,1490.89 Z M-37.8397,1490.89 C-52.6826,1490.89 -64.716,1502.92 -64.716,1517.77 C-64.716,1532.61 -52.6826,1544.64 -37.8397,1544.64 C-22.9968,1544.64 -10.9634,1532.61 -10.9634,1517.77 C-10.9634,1502.92 -22.9968,1490.89 -37.8397,1490.89 Z M-273.708,1490.89 C-288.551,1490.89 -300.584,1502.92 -300.584,1517.77 C-300.584,1532.61 -288.551,1544.64 -273.708,1544.64 C-258.865,1544.64 -246.832,1532.61 -246.832,1517.77 C-246.832,1502.92 -258.865,1490.89 -273.708,1490.89 Z M-509.576,1490.89 C-524.421,1490.89 -536.453,1502.92 -536.453,1517.77 C-536.453,1532.61 -524.421,1544.64 -509.576,1544.64 C-494.733,1544.64 -482.701,1532.61 -482.701,1517.77 C-482.701,1502.92 -494.733,1490.89 -509.576,1490.89 Z M-745.446,1490.89 C-760.289,1490.89 -772.321,1502.92 -772.321,1517.77 C-772.321,1532.61 -760.289,1544.64 -745.446,1544.64 C-730.603,1544.64 -718.57,1532.61 -718.57,1517.77 C-718.57,1502.92 -730.603,1490.89 -745.446,1490.89 Z M-981.314,1490.89 C-996.157,1490.89 -1008.19,1502.92 -1008.19,1517.77 C-1008.19,1532.61 -996.157,1544.64 -981.314,1544.64 C-966.471,1544.64 -954.438,1532.61 -954.438,1517.77 C-954.438,1502.92 -966.471,1490.89 -981.314,1490.89 Z M-1217.18,1490.89 C-1232.03,1490.89 -1244.06,1502.92 -1244.06,1517.77 C-1244.06,1532.61 -1232.03,1544.64 -1217.18,1544.64 C-1202.34,1544.64 -1190.31,1532.61 -1190.31,1517.77 C-1190.31,1502.92 -1202.34,1490.89 -1217.18,1490.89 Z M1168.38,1046.03 C1168.38,1031.19 1156.35,1019.15 1141.5,1019.15 C1126.66,1019.15 1114.63,1031.19 1114.63,1046.03 C1114.63,1060.87 1126.66,1072.91 1141.5,1072.91 C1156.35,1072.91 1168.38,1060.87 1168.38,1046.03 Z M932.511,1046.03 C932.511,1031.19 920.478,1019.15 905.635,1019.15 C890.792,1019.15 878.759,1031.19 878.759,1046.03 C878.759,1060.87 890.792,1072.91 905.635,1072.91 C920.478,1072.91 932.511,1060.87 932.511,1046.03 Z M696.643,1046.03 C696.643,1031.19 684.61,1019.15 669.767,1019.15 C654.923,1019.15 642.89,1031.19 642.89,1046.03 C642.89,1060.87 654.923,1072.91 669.767,1072.91 C684.61,1072.91 696.643,1060.87 696.643,1046.03 Z M433.898,1019.15 C419.054,1019.15 407.022,1031.19 407.022,1046.03 C407.022,1060.87 419.054,1072.91 433.898,1072.91 C448.741,1072.91 460.773,1060.87 460.773,1046.03 C460.773,1031.19 448.741,1019.15 433.898,1019.15 Z M224.905,1046.03 C224.905,1031.19 212.872,1019.15 198.029,1019.15 C183.185,1019.15 171.152,1031.19 171.152,1046.03 C171.152,1060.87 183.185,1072.91 198.029,1072.91 C212.872,1072.91 224.905,1060.87 224.905,1046.03 Z M-10.9634,1046.03 C-10.9634,1031.19 -22.9963,1019.15 -37.8397,1019.15 C-52.683,1019.15 -64.716,1031.19 -64.716,1046.03 C-64.716,1060.87 -52.683,1072.91 -37.8397,1072.91 C-22.9963,1072.91 -10.9634,1060.87 -10.9634,1046.03 Z M-246.832,1046.03 C-246.832,1031.19 -258.865,1019.15 -273.708,1019.15 C-288.551,1019.15 -300.584,1031.19 -300.584,1046.03 C-300.584,1060.87 -288.551,1072.91 -273.708,1072.91 C-258.865,1072.91 -246.832,1060.87 -246.832,1046.03 Z M-509.576,1019.15 C-524.421,1019.15 -536.453,1031.19 -536.453,1046.03 C-536.453,1060.87 -524.421,1072.91 -509.576,1072.91 C-494.733,1072.91 -482.701,1060.87 -482.701,1046.03 C-482.701,1031.19 -494.733,1019.15 -509.576,1019.15 Z M-745.446,1019.15 C-760.289,1019.15 -772.321,1031.19 -772.321,1046.03 C-772.321,1060.87 -760.289,1072.91 -745.446,1072.91 C-730.603,1072.91 -718.57,1060.87 -718.57,1046.03 C-718.57,1031.19 -730.603,1019.15 -745.446,1019.15 Z M-954.438,1046.03 C-954.438,1031.19 -966.471,1019.15 -981.314,1019.15 C-996.158,1019.15 -1008.19,1031.19 -1008.19,1046.03 C-1008.19,1060.87 -996.158,1072.91 -981.314,1072.91 C-966.471,1072.91 -954.438,1060.87 -954.438,1046.03 Z M-1190.31,1046.03 C-1190.31,1031.19 -1202.34,1019.15 -1217.18,1019.15 C-1232.03,1019.15 -1244.06,1031.19 -1244.06,1046.03 C-1244.06,1060.87 -1232.03,1072.91 -1217.18,1072.91 C-1202.34,1072.91 -1190.31,1060.87 -1190.31,1046.03 Z M-1072.37,810.261 C-1072.37,795.418 -1084.41,783.385 -1099.25,783.385 C-1114.09,783.385 -1126.12,795.418 -1126.12,810.261 C-1126.12,825.105 -1114.09,837.138 -1099.25,837.138 C-1084.41,837.138 -1072.37,825.105 -1072.37,810.261 Z M-627.512,783.385 C-642.355,783.385 -654.387,795.419 -654.387,810.261 C-654.387,825.104 -642.355,837.138 -627.512,837.138 C-612.668,837.138 -600.636,825.104 -600.636,810.261 C-600.636,795.419 -612.668,783.385 -627.512,783.385 Z M-391.642,783.385 C-406.486,783.385 -418.518,795.419 -418.518,810.261 C-418.518,825.104 -406.486,837.138 -391.642,837.138 C-376.799,837.138 -364.767,825.104 -364.767,810.261 C-364.767,795.419 -376.799,783.385 -391.642,783.385 Z M-128.898,810.261 C-128.898,795.418 -140.93,783.385 -155.774,783.385 C-170.617,783.385 -182.65,795.418 -182.65,810.261 C-182.65,825.105 -170.617,837.138 -155.774,837.138 C-140.93,837.138 -128.898,825.105 -128.898,810.261 Z M106.314,810.261 C106.314,795.418 94.2807,783.385 79.4374,783.385 C64.594,783.385 52.5611,795.418 52.5611,810.261 C52.5611,825.105 64.594,837.138 79.4374,837.138 C94.2807,837.138 106.314,825.105 106.314,810.261 Z M315.963,783.385 C301.12,783.385 289.088,795.419 289.088,810.261 C289.088,825.104 301.12,837.138 315.963,837.138 C330.807,837.138 342.839,825.104 342.839,810.261 C342.839,795.419 330.807,783.385 315.963,783.385 Z M551.832,783.385 C536.988,783.385 524.956,795.419 524.956,810.261 C524.956,825.104 536.988,837.138 551.832,837.138 C566.675,837.138 578.707,825.104 578.707,810.261 C578.707,795.419 566.675,783.385 551.832,783.385 Z M814.577,810.261 C814.577,795.418 802.544,783.385 787.701,783.385 C772.857,783.385 760.825,795.418 760.825,810.261 C760.825,825.105 772.857,837.138 787.701,837.138 C802.544,837.138 814.577,825.105 814.577,810.261 Z M1050.45,810.261 C1050.45,795.418 1038.41,783.385 1023.57,783.385 C1008.73,783.385 996.693,795.418 996.693,810.261 C996.693,825.105 1008.73,837.138 1023.57,837.138 C1038.41,837.138 1050.45,825.105 1050.45,810.261 Z M-836.504,810.261 C-836.504,795.418 -848.537,783.385 -863.38,783.385 C-878.223,783.385 -890.256,795.418 -890.256,810.261 C-890.256,825.105 -878.223,837.138 -863.38,837.138 C-848.537,837.138 -836.504,825.105 -836.504,810.261 Z M-1072.37,338.525 C-1072.37,323.682 -1084.41,311.649 -1099.25,311.649 C-1114.09,311.649 -1126.12,323.682 -1126.12,338.525 C-1126.12,353.368 -1114.09,365.401 -1099.25,365.401 C-1084.41,365.401 -1072.37,353.368 -1072.37,338.525 Z M-627.512,311.649 C-642.355,311.649 -654.387,323.682 -654.387,338.525 C-654.387,353.368 -642.355,365.401 -627.512,365.401 C-612.668,365.401 -600.636,353.368 -600.636,338.525 C-600.636,323.682 -612.668,311.649 -627.512,311.649 Z M-391.642,311.649 C-406.486,311.649 -418.518,323.682 -418.518,338.525 C-418.518,353.368 -406.486,365.401 -391.642,365.401 C-376.799,365.401 -364.767,353.368 -364.767,338.525 C-364.767,323.682 -376.799,311.649 -391.642,311.649 Z M-128.898,338.525 C-128.898,323.682 -140.93,311.649 -155.774,311.649 C-170.617,311.649 -182.65,323.682 -182.65,338.525 C-182.65,353.368 -170.617,365.401 -155.774,365.401 C-140.93,365.401 -128.898,353.368 -128.898,338.525 Z M106.314,338.525 C106.314,323.682 94.2807,311.649 79.4374,311.649 C64.594,311.649 52.5611,323.682 52.5611,338.525 C52.5611,353.368 64.594,365.401 79.4374,365.401 C94.2807,365.401 106.314,353.368 106.314,338.525 Z M315.963,311.649 C301.12,311.649 289.088,323.682 289.088,338.525 C289.088,353.368 301.12,365.401 315.963,365.401 C330.807,365.401 342.839,353.368 342.839,338.525 C342.839,323.682 330.807,311.649 315.963,311.649 Z M551.832,311.649 C536.988,311.649 524.956,323.682 524.956,338.525 C524.956,353.368 536.988,365.401 551.832,365.401 C566.675,365.401 578.707,353.368 578.707,338.525 C578.707,323.682 566.675,311.649 551.832,311.649 Z M814.577,338.525 C814.577,323.682 802.544,311.649 787.701,311.649 C772.857,311.649 760.825,323.682 760.825,338.525 C760.825,353.368 772.857,365.401 787.701,365.401 C802.544,365.401 814.577,353.368 814.577,338.525 Z M1050.45,338.525 C1050.45,323.682 1038.41,311.649 1023.57,311.649 C1008.73,311.649 996.693,323.682 996.693,338.525 C996.693,353.368 1008.73,365.401 1023.57,365.401 C1038.41,365.401 1050.45,353.368 1050.45,338.525 Z M-836.504,338.525 C-836.504,323.682 -848.537,311.649 -863.38,311.649 C-878.223,311.649 -890.256,323.682 -890.256,338.525 C-890.256,353.368 -878.223,365.401 -863.38,365.401 C-848.537,365.401 -836.504,353.368 -836.504,338.525 Z M1168.38,574.393 C1168.38,559.55 1156.35,547.517 1141.5,547.517 C1126.66,547.517 1114.63,559.55 1114.63,574.393 C1114.63,589.236 1126.66,601.269 1141.5,601.269 C1156.35,601.269 1168.38,589.236 1168.38,574.393 Z M932.511,574.393 C932.511,559.55 920.478,547.517 905.635,547.517 C890.792,547.517 878.759,559.55 878.759,574.393 C878.759,589.236 890.792,601.269 905.635,601.269 C920.478,601.269 932.511,589.236 932.511,574.393 Z M696.643,574.393 C696.643,559.55 684.61,547.517 669.767,547.517 C654.923,547.517 642.89,559.55 642.89,574.393 C642.89,589.236 654.923,601.269 669.767,601.269 C684.61,601.269 696.643,589.236 696.643,574.393 Z M433.898,547.517 C419.054,547.517 407.022,559.55 407.022,574.393 C407.022,589.236 419.054,601.269 433.898,601.269 C448.741,601.269 460.773,589.236 460.773,574.393 C460.773,559.55 448.741,547.517 433.898,547.517 Z M224.905,574.393 C224.905,559.55 212.872,547.517 198.029,547.517 C183.185,547.517 171.152,559.55 171.152,574.393 C171.152,589.236 183.185,601.269 198.029,601.269 C212.872,601.269 224.905,589.236 224.905,574.393 Z M-10.9634,574.393 C-10.9634,559.55 -22.9963,547.517 -37.8397,547.517 C-52.683,547.517 -64.716,559.55 -64.716,574.393 C-64.716,589.236 -52.683,601.269 -37.8397,601.269 C-22.9963,601.269 -10.9634,589.236 -10.9634,574.393 Z M-246.832,574.393 C-246.832,559.55 -258.865,547.517 -273.708,547.517 C-288.551,547.517 -300.584,559.55 -300.584,574.393 C-300.584,589.236 -288.551,601.269 -273.708,601.269 C-258.865,601.269 -246.832,589.236 -246.832,574.393 Z M-509.576,547.517 C-524.421,547.517 -536.453,559.55 -536.453,574.393 C-536.453,589.236 -524.421,601.269 -509.576,601.269 C-494.733,601.269 -482.701,589.236 -482.701,574.393 C-482.701,559.55 -494.733,547.517 -509.576,547.517 Z M-745.446,547.517 C-760.289,547.517 -772.321,559.55 -772.321,574.393 C-772.321,589.236 -760.289,601.269 -745.446,601.269 C-730.603,601.269 -718.57,589.236 -718.57,574.393 C-718.57,559.55 -730.603,547.517 -745.446,547.517 Z M-954.438,574.393 C-954.438,559.55 -966.471,547.517 -981.314,547.517 C-996.158,547.517 -1008.19,559.55 -1008.19,574.393 C-1008.19,589.236 -996.158,601.269 -981.314,601.269 C-966.471,601.269 -954.438,589.236 -954.438,574.393 Z M-1190.31,574.393 C-1190.31,559.55 -1202.34,547.517 -1217.18,547.517 C-1232.03,547.517 -1244.06,559.55 -1244.06,574.393 C-1244.06,589.236 -1232.03,601.269 -1217.18,601.269 C-1202.34,601.269 -1190.31,589.236 -1190.31,574.393 Z M1141.5,129.531 C1156.35,129.531 1168.38,117.499 1168.38,102.656 C1168.38,87.8118 1156.35,75.7799 1141.5,75.7799 C1126.66,75.7799 1114.63,87.8118 1114.63,102.656 C1114.63,117.499 1126.66,129.531 1141.5,129.531 Z M905.635,75.7799 C890.792,75.7799 878.759,87.8118 878.759,102.656 C878.759,117.499 890.792,129.531 905.635,129.531 C920.478,129.531 932.511,117.499 932.511,102.656 C932.511,87.8118 920.478,75.7799 905.635,75.7799 Z M669.767,75.7799 C654.924,75.7799 642.89,87.8118 642.89,102.656 C642.89,117.499 654.924,129.531 669.767,129.531 C684.61,129.531 696.643,117.499 696.643,102.656 C696.643,87.8118 684.61,75.7799 669.767,75.7799 Z M433.898,75.7799 C419.054,75.7799 407.022,87.8118 407.022,102.656 C407.022,117.499 419.054,129.531 433.898,129.531 C448.741,129.531 460.773,117.499 460.773,102.656 C460.773,87.8118 448.741,75.7799 433.898,75.7799 Z M198.029,75.7799 C183.186,75.7799 171.152,87.8118 171.152,102.656 C171.152,117.499 183.186,129.531 198.029,129.531 C212.871,129.531 224.905,117.499 224.905,102.656 C224.905,87.8118 212.871,75.7799 198.029,75.7799 Z M-37.8397,75.7799 C-52.6826,75.7799 -64.716,87.8118 -64.716,102.656 C-64.716,117.499 -52.6826,129.531 -37.8397,129.531 C-22.9968,129.531 -10.9634,117.499 -10.9634,102.656 C-10.9634,87.8118 -22.9968,75.7799 -37.8397,75.7799 Z M-273.708,75.7799 C-288.551,75.7799 -300.584,87.8118 -300.584,102.656 C-300.584,117.499 -288.551,129.531 -273.708,129.531 C-258.865,129.531 -246.832,117.499 -246.832,102.656 C-246.832,87.8118 -258.865,75.7799 -273.708,75.7799 Z M-509.576,75.7799 C-524.421,75.7799 -536.453,87.8118 -536.453,102.656 C-536.453,117.499 -524.421,129.531 -509.576,129.531 C-494.733,129.531 -482.701,117.499 -482.701,102.656 C-482.701,87.8118 -494.733,75.7799 -509.576,75.7799 Z M-745.446,75.7799 C-760.289,75.7799 -772.321,87.8118 -772.321,102.656 C-772.321,117.499 -760.289,129.531 -745.446,129.531 C-730.603,129.531 -718.57,117.499 -718.57,102.656 C-718.57,87.8118 -730.603,75.7799 -745.446,75.7799 Z M-981.314,75.7799 C-996.157,75.7799 -1008.19,87.8118 -1008.19,102.656 C-1008.19,117.499 -996.157,129.531 -981.314,129.531 C-966.471,129.531 -954.438,117.499 -954.438,102.656 C-954.438,87.8118 -966.471,75.7799 -981.314,75.7799 Z M-1217.18,75.7799 C-1232.03,75.7799 -1244.06,87.8118 -1244.06,102.656 C-1244.06,117.499 -1232.03,129.531 -1217.18,129.531 C-1202.34,129.531 -1190.31,117.499 -1190.31,102.656 C-1190.31,87.8118 -1202.34,75.7799 -1217.18,75.7799 Z " fill="#415986" fill-opacity="1.00" />			<path d="M-2533.89,580.008 L-2250.22,88.4807 L-1966.54,580.008 L-2533.89,580.008 Z " fill="#575757" fill-opacity="1.00" />			<path d="M1425.49,304.028 L-529.802,304.028 L-172.152,117.342 L-12.9773,-96.8555 L378.08,-248.169 L407.557,-307.123 L547.08,-407.343 L782.894,-163.669 L883.114,-120.437 L1087.49,38.7373 L1150.37,17.121 C1150.37,17.121 1407.8,286.342 1425.49,304.028 Z " fill="#91cbff" fill-opacity="1.00" />			<path d="M-1244.06,2488.12 L1244.06,2488.12 L1244.06,1.06072e-07 L-1244.06,1.06072e-07 L-1244.06,2488.12 Z " fill="#4d95ff" fill-opacity="1.00" />			<path d="M-417.854,2853.44 L-299.013,2754.71 L-181.085,2853.44 L-63.1581,2754.71 L55.6833,2853.44 L190.065,2741.91 C201.035,2732.77 201.95,2718.14 193.722,2707.17 C184.58,2696.2 169.04,2695.29 158.984,2703.52 L56.5974,2789.45 L-63.1581,2690.72 L-181.085,2789.45 L-299.013,2690.72 L-417.854,2789.45 L-520.24,2703.52 C-531.21,2694.38 -546.751,2696.2 -554.979,2707.17 C-564.12,2718.14 -562.292,2733.68 -551.322,2741.91 L-417.854,2853.44 Z M159.898,3105.75 L57.5116,3190.77 L-61.3298,3092.04 L-180.171,3190.77 L-298.098,3092.04 L-416.94,3190.77 L-521.154,3105.75 C-532.124,3096.61 -547.665,3098.44 -555.893,3109.41 C-565.034,3120.38 -563.206,3135.92 -552.236,3144.14 L-417.854,3254.76 L-299.927,3156.03 L-181.999,3254.76 L-63.1581,3156.03 L55.6833,3254.76 L190.065,3143.23 C201.035,3134.09 201.95,3119.46 193.722,3108.49 C185.495,3097.52 169.954,3096.61 159.898,3105.75 Z M159.898,3305.95 L57.5116,3390.97 L-62.2439,3292.24 L-180.171,3390.97 L-298.098,3292.24 L-416.94,3390.97 L-519.326,3305.95 C-530.296,3296.81 -545.837,3298.64 -554.064,3309.61 C-563.206,3320.58 -561.378,3336.12 -550.408,3344.35 L-416.026,3454.96 L-298.098,3356.23 L-180.171,3454.96 L-61.3298,3356.23 L56.5974,3454.96 L190.98,3343.43 C201.95,3334.29 202.864,3319.66 194.636,3308.69 C185.495,3299.55 169.954,3297.72 159.898,3305.95 Z M159.898,2904.63 L56.5974,2990.57 L-63.1581,2891.84 L-181.085,2990.57 L-299.013,2891.84 L-417.854,2990.57 L-520.24,2904.63 C-531.21,2895.49 -546.751,2897.32 -554.979,2908.29 C-564.12,2919.26 -562.292,2934.8 -551.322,2943.03 L-416.94,3054.56 L-299.013,2955.83 L-180.171,3054.56 L-62.2439,2955.83 L56.5974,3054.56 L190.98,2943.03 C201.95,2933.89 202.864,2919.26 194.636,2908.29 C185.495,2897.32 169.954,2895.49 159.898,2904.63 Z " fill="#5d76a5" fill-opacity="1.00" />			<path d="M-357.5,460.572 C-64.4689,198.387 386.461,207.2 669.209,487.011 C387.195,769.026 -63.0001,778.573 -356.765,515.653 L309.347,516.388 C317.426,515.653 324.77,512.716 329.176,508.309 C333.583,503.903 337.255,495.824 337.255,488.48 C337.989,473.057 325.504,460.572 309.347,460.572 L-357.5,460.572 Z " fill="#415986" fill-opacity="1.00" />			<path d="M501.151,461.476 C501.151,446.756 489.217,434.822 474.496,434.822 C459.775,434.822 447.842,446.756 447.842,461.476 C447.842,476.197 459.775,488.131 474.496,488.131 C489.217,488.131 501.151,476.197 501.151,461.476 Z " fill="#ffffff" fill-opacity="1.00" />			<path d="M-846.492,-621.379 C-846.492,-621.379 -846.492,-621.379 -846.492,-621.379 C-846.492,-629.468 -846.492,-645.644 -846.492,-669.909 C-834.25,-669.909 -809.985,-669.909 -773.697,-669.909 C-773.697,-677.998 -773.697,-694.065 -773.697,-718.112 C-785.938,-718.112 -810.204,-718.112 -846.492,-718.112 C-846.492,-726.2 -846.492,-742.377 -846.492,-766.642 C-830.315,-766.642 -798.071,-766.642 -749.759,-766.642 C-749.759,-777.354 -749.759,-793.421 -749.759,-814.844 C-771.183,-814.844 -803.427,-814.844 -846.492,-814.844 C-857.204,-814.844 -873.271,-814.844 -894.694,-814.844 C-894.694,-804.133 -894.694,-788.065 -894.694,-766.642 C-894.694,-761.395 -894.694,-754.619 -894.694,-746.312 C-894.694,-738.223 -894.694,-728.823 -894.694,-718.112 C-894.694,-707.4 -894.694,-691.333 -894.694,-669.909 C-894.694,-659.198 -894.694,-643.021 -894.694,-621.379 C-894.694,-610.668 -894.694,-594.6 -894.694,-573.177 C-883.983,-573.177 -867.915,-573.177 -846.492,-573.177 C-846.492,-573.177 -846.492,-573.177 -846.492,-573.177 C-846.492,-583.888 -846.492,-599.956 -846.492,-621.379 Z M-580.231,-694.175 C-573.673,-694.175 -567.99,-696.47 -563.18,-701.061 C-558.59,-705.87 -556.294,-711.554 -556.294,-718.112 C-556.294,-750.465 -556.294,-774.73 -556.294,-790.907 C-556.294,-797.465 -558.59,-803.149 -563.18,-807.958 C-567.99,-812.549 -573.673,-814.844 -580.231,-814.844 C-612.585,-814.844 -636.85,-814.844 -653.027,-814.844 C-674.45,-814.844 -690.517,-814.844 -701.229,-814.844 C-701.229,-793.421 -701.229,-774.621 -701.229,-758.444 C-701.229,-742.268 -701.229,-728.823 -701.229,-718.112 C-701.229,-696.688 -701.229,-680.621 -701.229,-669.909 C-701.229,-626.844 -701.229,-594.6 -701.229,-573.177 C-679.806,-573.177 -663.738,-573.177 -653.027,-573.177 C-653.027,-616.242 -653.027,-648.486 -653.027,-669.909 C-631.385,-669.909 -615.208,-669.909 -604.497,-669.909 C-604.497,-626.844 -604.497,-594.6 -604.497,-573.177 C-583.073,-573.177 -567.006,-573.177 -556.294,-573.177 C-556.294,-616.242 -556.294,-648.486 -556.294,-669.909 C-556.294,-676.686 -558.59,-682.37 -563.18,-686.961 C-567.99,-691.77 -573.673,-694.175 -580.231,-694.175 Z M-604.497,-718.112 C-625.92,-718.112 -642.097,-718.112 -653.027,-718.112 C-653.027,-739.754 -653.027,-755.93 -653.027,-766.642 C-631.385,-766.642 -615.208,-766.642 -604.497,-766.642 C-604.497,-748.935 -604.497,-735.6 -604.497,-726.637 C-604.497,-722.921 -604.497,-720.079 -604.497,-718.112 Z M-362.829,-766.642 C-362.829,-774.73 -362.829,-790.798 -362.829,-814.844 C-378.787,-814.844 -411.031,-814.844 -459.562,-814.844 C-467.431,-814.844 -483.499,-814.844 -507.764,-814.844 C-507.764,-806.756 -507.764,-790.688 -507.764,-766.642 C-507.764,-758.554 -507.764,-742.377 -507.764,-718.112 C-507.764,-710.242 -507.764,-694.175 -507.764,-669.909 C-507.764,-664.663 -507.764,-657.995 -507.764,-649.907 C-507.764,-641.819 -507.764,-632.309 -507.764,-621.379 C-507.764,-610.668 -507.764,-594.6 -507.764,-573.177 C-497.052,-573.177 -480.985,-573.177 -459.562,-573.177 C-437.92,-573.177 -405.676,-573.177 -362.829,-573.177 C-362.829,-583.888 -362.829,-599.956 -362.829,-621.379 C-384.252,-621.379 -416.497,-621.379 -459.562,-621.379 C-459.562,-632.309 -459.562,-648.486 -459.562,-669.909 C-443.385,-669.909 -419.12,-669.909 -386.766,-669.909 C-386.766,-680.621 -386.766,-696.688 -386.766,-718.112 C-402.943,-718.112 -427.208,-718.112 -459.562,-718.112 C-459.562,-729.042 -459.562,-745.219 -459.562,-766.642 C-437.92,-766.642 -405.676,-766.642 -362.829,-766.642 Z M-217.566,-742.377 C-196.143,-742.377 -180.076,-742.377 -169.364,-742.377 C-169.364,-763.8 -169.364,-779.977 -169.364,-790.907 C-169.364,-797.465 -171.659,-803.149 -176.25,-807.958 C-181.059,-812.549 -186.743,-814.844 -193.301,-814.844 C-236.366,-814.844 -268.61,-814.844 -290.034,-814.844 C-296.81,-814.844 -302.494,-812.549 -307.085,-807.958 C-311.894,-803.149 -314.299,-797.465 -314.299,-790.907 C-314.299,-769.484 -314.299,-750.684 -314.299,-734.507 C-314.299,-718.33 -314.299,-704.886 -314.299,-694.175 C-314.299,-687.398 -311.894,-681.605 -307.085,-676.795 C-302.494,-672.205 -296.81,-669.909 -290.034,-669.909 C-257.899,-669.909 -233.743,-669.909 -217.566,-669.909 C-217.566,-648.486 -217.566,-632.309 -217.566,-621.379 C-238.99,-621.379 -255.166,-621.379 -266.097,-621.379 C-266.097,-632.309 -266.097,-640.398 -266.097,-645.644 C-287.52,-645.644 -303.587,-645.644 -314.299,-645.644 C-314.299,-624.221 -314.299,-608.154 -314.299,-597.442 C-314.299,-590.665 -311.894,-584.981 -307.085,-580.391 C-302.494,-575.581 -296.81,-573.177 -290.034,-573.177 C-247.187,-573.177 -214.943,-573.177 -193.301,-573.177 C-186.743,-573.177 -181.059,-575.581 -176.25,-580.391 C-171.659,-584.981 -169.364,-590.665 -169.364,-597.442 C-169.364,-640.288 -169.364,-672.533 -169.364,-694.175 C-169.364,-700.733 -171.659,-706.416 -176.25,-711.226 C-181.059,-715.816 -186.743,-718.112 -193.301,-718.112 C-225.655,-718.112 -249.92,-718.112 -266.097,-718.112 C-266.097,-739.754 -266.097,-755.93 -266.097,-766.642 C-244.455,-766.642 -228.278,-766.642 -217.566,-766.642 C-217.566,-755.93 -217.566,-747.842 -217.566,-742.377 Z M-24.1012,-814.844 C-24.1012,-798.886 -24.1012,-766.642 -24.1012,-718.112 C-32.1895,-718.112 -48.3663,-718.112 -72.6314,-718.112 C-72.6314,-734.288 -72.6314,-766.533 -72.6314,-814.844 C-80.5012,-814.844 -96.5686,-814.844 -120.834,-814.844 C-120.834,-798.886 -120.834,-766.642 -120.834,-718.112 C-120.834,-710.242 -120.834,-694.175 -120.834,-669.909 C-120.834,-659.198 -120.834,-645.754 -120.834,-629.577 C-120.834,-613.4 -120.834,-594.6 -120.834,-573.177 C-110.122,-573.177 -94.0547,-573.177 -72.6314,-573.177 C-72.6314,-594.6 -72.6314,-626.844 -72.6314,-669.909 C-61.7012,-669.909 -45.5244,-669.909 -24.1012,-669.909 C-24.1012,-648.486 -24.1012,-616.242 -24.1012,-573.177 C-13.3895,-573.177 2.67791,-573.177 24.1012,-573.177 C24.1012,-594.6 24.1012,-626.844 24.1012,-669.909 C24.1012,-680.621 24.1012,-696.688 24.1012,-718.112 C24.1012,-739.754 24.1012,-771.998 24.1012,-814.844 C13.3895,-814.844 -2.67791,-814.844 -24.1012,-814.844 Z M314.299,-621.379 C314.299,-621.379 314.299,-621.379 314.299,-621.379 C314.299,-629.468 314.299,-645.644 314.299,-669.909 C326.541,-669.909 350.806,-669.909 387.094,-669.909 C387.094,-677.998 387.094,-694.065 387.094,-718.112 C374.852,-718.112 350.587,-718.112 314.299,-718.112 C314.299,-726.2 314.299,-742.377 314.299,-766.642 C335.941,-766.642 368.185,-766.642 411.031,-766.642 C411.031,-777.354 411.031,-793.421 411.031,-814.844 C389.608,-814.844 357.364,-814.844 314.299,-814.844 C303.587,-814.844 287.52,-814.844 266.097,-814.844 C266.097,-804.133 266.097,-788.065 266.097,-766.642 C266.097,-761.395 266.097,-754.619 266.097,-746.312 C266.097,-738.223 266.097,-728.823 266.097,-718.112 C266.097,-707.4 266.097,-691.333 266.097,-669.909 C266.097,-659.198 266.097,-643.021 266.097,-621.379 C266.097,-610.668 266.097,-594.6 266.097,-573.177 C276.808,-573.177 292.876,-573.177 314.299,-573.177 C314.299,-573.177 314.299,-573.177 314.299,-573.177 C314.299,-583.888 314.299,-599.956 314.299,-621.379 Z M459.562,-814.844 C459.562,-761.068 459.562,-714.068 459.562,-673.844 C459.562,-633.621 459.562,-600.065 459.562,-573.177 C483.827,-573.177 499.894,-573.177 507.764,-573.177 C507.764,-603.344 507.764,-623.456 507.764,-633.512 C507.764,-724.233 507.764,-784.677 507.764,-814.844 C483.717,-814.844 467.65,-814.844 459.562,-814.844 Z M653.027,-742.377 C674.45,-742.377 690.517,-742.377 701.229,-742.377 C701.229,-763.8 701.229,-779.977 701.229,-790.907 C701.229,-797.465 698.934,-803.149 694.343,-807.958 C689.534,-812.549 683.85,-814.844 677.292,-814.844 C634.227,-814.844 601.983,-814.844 580.559,-814.844 C573.783,-814.844 568.099,-812.549 563.508,-807.958 C558.699,-803.149 556.294,-797.465 556.294,-790.907 C556.294,-769.484 556.294,-750.684 556.294,-734.507 C556.294,-718.33 556.294,-704.886 556.294,-694.175 C556.294,-687.398 558.699,-681.605 563.508,-676.795 C568.099,-672.205 573.783,-669.909 580.559,-669.909 C612.694,-669.909 636.85,-669.909 653.027,-669.909 C653.027,-648.486 653.027,-632.309 653.027,-621.379 C631.604,-621.379 615.427,-621.379 604.497,-621.379 C604.497,-632.309 604.497,-640.398 604.497,-645.644 C583.073,-645.644 567.006,-645.644 556.294,-645.644 C556.294,-624.221 556.294,-608.154 556.294,-597.442 C556.294,-590.665 558.699,-584.981 563.508,-580.391 C568.099,-575.581 573.783,-573.177 580.559,-573.177 C623.406,-573.177 655.65,-573.177 677.292,-573.177 C683.85,-573.177 689.534,-575.581 694.343,-580.391 C698.934,-584.981 701.229,-590.665 701.229,-597.442 C701.229,-640.288 701.229,-672.533 701.229,-694.175 C701.229,-700.733 698.934,-706.416 694.343,-711.226 C689.534,-715.816 683.85,-718.112 677.292,-718.112 C644.938,-718.112 620.673,-718.112 604.497,-718.112 C604.497,-739.754 604.497,-755.93 604.497,-766.642 C626.138,-766.642 642.315,-766.642 653.027,-766.642 C653.027,-755.93 653.027,-747.842 653.027,-742.377 Z M846.492,-814.844 C846.492,-798.886 846.492,-766.642 846.492,-718.112 C838.404,-718.112 822.227,-718.112 797.962,-718.112 C797.962,-734.288 797.962,-766.533 797.962,-814.844 C790.092,-814.844 774.024,-814.844 749.759,-814.844 C749.759,-798.886 749.759,-766.642 749.759,-718.112 C749.759,-710.242 749.759,-694.175 749.759,-669.909 C749.759,-659.198 749.759,-645.754 749.759,-629.577 C749.759,-613.4 749.759,-594.6 749.759,-573.177 C760.471,-573.177 776.538,-573.177 797.962,-573.177 C797.962,-594.6 797.962,-626.844 797.962,-669.909 C808.892,-669.909 825.069,-669.909 846.492,-669.909 C846.492,-648.486 846.492,-616.242 846.492,-573.177 C857.204,-573.177 873.271,-573.177 894.694,-573.177 C894.694,-594.6 894.694,-626.844 894.694,-669.909 C894.694,-680.621 894.694,-696.688 894.694,-718.112 C894.694,-739.754 894.694,-771.998 894.694,-814.844 C883.983,-814.844 867.915,-814.844 846.492,-814.844 Z " fill="#ffffff" fill-opacity="1.00" />			<path d="M187.034,-662.59 C204.255,-679.812 204.255,-707.733 187.034,-724.954 C169.812,-742.176 141.891,-742.176 124.67,-724.954 C107.448,-707.733 107.448,-679.812 124.67,-662.59 C141.891,-645.369 169.812,-645.369 187.034,-662.59 Z M231.559,-726.275 L229.458,-730.782 L203.012,-718.457 L205.113,-713.949 L231.559,-726.275 Z M238.016,-698.678 L237.582,-703.633 L208.351,-701.072 L208.785,-696.118 L238.016,-698.678 Z M206.445,-677.86 L234.788,-670.266 L236.075,-675.07 L207.732,-682.664 L206.445,-677.86 Z M197.685,-661.509 L221.723,-644.679 L224.575,-648.753 L200.538,-665.583 L197.685,-661.509 Z M184.155,-649.263 L200.987,-625.228 L205.061,-628.08 L188.229,-652.116 L184.155,-649.263 Z M167.438,-642.039 L175.032,-613.696 L179.836,-614.983 L172.242,-643.326 L167.438,-642.039 Z M148.87,-641.485 L146.328,-612.419 L151.282,-611.986 L153.824,-641.052 L148.87,-641.485 Z M131.179,-646.766 L118.848,-620.322 L123.355,-618.22 L135.687,-644.664 L131.179,-646.766 Z M95.8322,-637.27 L99.349,-633.753 L120.098,-654.502 L116.581,-658.018 L95.8322,-637.27 Z M80.35,-661.422 L82.453,-656.915 L109.045,-669.323 L106.942,-673.83 L80.35,-661.422 Z M73.6934,-689.221 L74.1274,-684.267 L103.193,-686.813 L102.759,-691.767 L73.6934,-689.221 Z M105.366,-709.996 L77.0227,-717.59 L75.7355,-712.786 L104.079,-705.192 L105.366,-709.996 Z M113.668,-726.252 L89.7679,-742.988 L86.9151,-738.914 L110.815,-722.178 L113.668,-726.252 Z M127.535,-738.689 L110.706,-762.727 L106.632,-759.874 L123.461,-735.836 L127.535,-738.689 Z M144.786,-745.356 L137.191,-773.699 L132.388,-772.412 L139.982,-744.069 L144.786,-745.356 Z M162.725,-746.536 L165.267,-775.602 L160.313,-776.035 L157.771,-746.969 L162.725,-746.536 Z M180.286,-740.753 L192.687,-767.347 L188.18,-769.449 L175.778,-742.855 L180.286,-740.753 Z M191.605,-733.043 L195.122,-729.526 L215.871,-750.275 L212.354,-753.792 L191.605,-733.043 Z " fill="#ffffff" fill-opacity="1.00" />			<path d="M-70.1679,608.965 L369.931,502.922 C385.86,498.371 385.86,476.07 369.931,472.884 L-70.1679,367.297 L-70.1679,608.965 Z " fill="#415986" fill-opacity="1.00" />			<path d="M88.5065,690.509 C38.1969,663.726 -36.8642,621.933 -137.686,606.634 C-277.01,584.196 -384.035,621.387 -380.098,629.245 C-376.046,636.641 -313.744,623.184 -231.184,644.74 C-158.336,663.875 -268.415,790.202 -199.037,807.491 C-135.209,823.397 -36.6968,690.257 84.7015,703.807 C93.8352,704.609 95.9083,694.319 88.5065,690.509 Z " fill="#415986" fill-opacity="1.00" />			<path d="M189.131,305.367 C129.569,334.229 40.6226,379.418 -77.0491,392.727 C-239.716,412.623 -362.272,364.746 -357.357,355.801 C-352.329,347.397 -280.624,365.76 -183.868,344.386 C-98.4891,325.392 -220.659,173.944 -139.388,156.94 C-64.619,141.297 43.8291,300.139 185.302,289.768 C195.936,289.24 197.888,301.273 189.131,305.367 Z " fill="#415986" fill-opacity="1.00" />			<path d="M-1744.8,791.064 L-1744.8,735.187 C-1786,735.187 -1805.33,726.593 -1827.72,716.641 C-1852.35,705.69 -1880.27,693.28 -1933.34,693.28 C-1986.41,693.28 -2014.34,705.69 -2038.97,716.641 C-2061.36,726.593 -2080.69,735.187 -2121.9,735.187 C-2163.12,735.187 -2182.46,726.593 -2204.84,716.641 C-2229.48,705.69 -2257.4,693.28 -2310.48,693.28 C-2363.55,693.28 -2391.47,705.69 -2416.12,716.641 C-2438.5,726.593 -2457.84,735.187 -2499.06,735.187 C-2540.28,735.187 -2559.62,726.593 -2582,716.641 C-2606.65,705.69 -2634.57,693.28 -2687.64,693.28 C-2740.72,693.28 -2768.64,705.69 -2793.28,716.641 C-2815.67,726.593 -2835.01,735.187 -2876.23,735.187 C-2917.46,735.187 -2936.79,726.593 -2959.19,716.641 C-2983.83,705.69 -3011.76,693.28 -3064.84,693.28 C-3117.92,693.28 -3145.85,705.69 -3170.49,716.641 C-3192.89,726.593 -3212.23,735.187 -3253.46,735.187 L-3253.46,791.064 C-3200.37,791.064 -3172.44,778.653 -3147.81,767.702 C-3125.41,757.75 -3106.07,749.156 -3064.84,749.156 C-3023.62,749.156 -3004.28,757.75 -2981.88,767.702 C-2957.24,778.653 -2929.31,791.064 -2876.23,791.064 C-2823.15,791.064 -2795.23,778.653 -2770.58,767.702 C-2748.2,757.75 -2728.86,749.156 -2687.64,749.156 C-2646.42,749.156 -2627.09,757.75 -2604.7,767.702 C-2580.06,778.653 -2552.13,791.064 -2499.06,791.064 C-2445.99,791.064 -2418.06,778.653 -2393.42,767.702 C-2371.03,757.75 -2351.7,749.156 -2310.48,749.156 C-2269.27,749.156 -2249.93,757.75 -2227.54,767.702 C-2202.9,778.653 -2174.97,791.064 -2121.9,791.064 C-2068.83,791.064 -2040.91,778.653 -2016.27,767.702 C-1993.89,757.75 -1974.56,749.156 -1933.34,749.156 C-1892.13,749.156 -1872.8,757.75 -1850.42,767.702 C-1825.78,778.653 -1797.86,791.064 -1744.8,791.064 L-1744.8,791.064 Z " fill="#3599f4" fill-opacity="1.00" />			<path d="M-1244.06,839.956 L-1244.06,784.079 C-1285.26,784.079 -1304.59,775.485 -1326.98,765.533 C-1351.62,754.582 -1379.54,742.172 -1432.61,742.172 C-1485.67,742.172 -1513.6,754.582 -1538.24,765.533 C-1560.62,775.485 -1579.95,784.079 -1621.16,784.079 C-1662.38,784.079 -1681.72,775.485 -1704.11,765.533 C-1728.74,754.582 -1756.67,742.172 -1809.74,742.172 C-1862.81,742.172 -1890.74,754.582 -1915.38,765.533 C-1937.77,775.485 -1957.1,784.079 -1998.32,784.079 C-2039.54,784.079 -2058.88,775.485 -2081.27,765.533 C-2105.91,754.582 -2133.83,742.172 -2186.91,742.172 C-2239.98,742.172 -2267.9,754.582 -2292.55,765.533 C-2314.93,775.485 -2334.27,784.079 -2375.49,784.079 C-2416.72,784.079 -2436.06,775.485 -2458.46,765.533 C-2483.1,754.582 -2511.03,742.172 -2564.11,742.172 C-2617.19,742.172 -2645.12,754.582 -2669.76,765.533 C-2692.15,775.485 -2711.49,784.079 -2752.72,784.079 L-2752.72,839.956 C-2699.64,839.956 -2671.71,827.545 -2647.07,816.594 C-2624.67,806.643 -2605.33,798.048 -2564.11,798.048 C-2522.88,798.048 -2503.54,806.643 -2481.14,816.594 C-2456.51,827.545 -2428.58,839.956 -2375.49,839.956 C-2322.42,839.956 -2294.49,827.545 -2269.85,816.594 C-2247.46,806.643 -2228.13,798.048 -2186.91,798.048 C-2145.69,798.048 -2126.35,806.643 -2103.96,816.594 C-2079.32,827.545 -2051.4,839.956 -1998.32,839.956 C-1945.25,839.956 -1917.33,827.545 -1892.68,816.594 C-1870.3,806.643 -1850.96,798.048 -1809.74,798.048 C-1768.53,798.048 -1749.19,806.643 -1726.81,816.594 C-1702.16,827.545 -1674.24,839.956 -1621.16,839.956 C-1568.1,839.956 -1540.17,827.545 -1515.54,816.594 C-1493.15,806.643 -1473.82,798.048 -1432.61,798.048 C-1391.4,798.048 -1372.07,806.643 -1349.68,816.594 C-1325.04,827.545 -1297.13,839.956 -1244.06,839.956 L-1244.06,839.956 Z " fill="#3599f4" fill-opacity="1.00" />			<path d="M-585.684,488.579 C-585.684,488.579 -639.784,526.164 -639.784,626.962 C-639.784,760.22 -154.589,577.987 -95.9322,534.137 C-75.431,518.761 -69.1667,502.246 -70.3057,488.009 C-69.1667,473.772 -74.8615,457.257 -95.9322,441.882 C-154.588,398.032 -639.784,216.368 -639.784,349.057 C-639.784,449.854 -585.684,488.579 -585.684,488.579 Z " fill="#415986" fill-opacity="1.00" />			<path d="M-23.9754,553.776 C-23.9754,553.776 11.026,529.459 11.026,464.245 C11.026,378.031 -302.882,495.931 -340.831,524.301 C-354.095,534.248 -358.147,544.933 -357.411,554.144 C-358.147,563.355 -354.463,574.04 -340.831,583.987 C-302.882,612.357 11.026,729.888 11.026,644.042 C11.026,578.829 -23.9754,553.776 -23.9754,553.776 Z " fill="#415986" fill-opacity="1.00" />		</g>	</svg>